<svg id="Layer_1" data-name="Layer 1" xmlns="http://www.w3.org/2000/svg" xmlns:xlink="http://www.w3.org/1999/xlink" viewBox="0 0 553.38 480.78"><defs><style>.cls-1{fill:#676ab1;stroke-width:3px;}.cls-1,.cls-4{stroke:#231f20;}.cls-1,.cls-2,.cls-3,.cls-4{stroke-miterlimit:10;}.cls-2{fill:#566eb5;}.cls-2,.cls-3{stroke:#fff;stroke-width:2px;}.cls-3{fill:url(#linear-gradient);}.cls-4{fill:none;stroke-width:6px;}.cls-5,.cls-6{fill:#231f20;}.cls-6{font-size:36px;font-family:GillSans-UltraBold, Gill Sans Ultra Bold;font-weight:700;}.cls-7{letter-spacing:-0.01em;}</style><linearGradient id="linear-gradient" x1="540.86" y1="345.99" x2="539.03" y2="741.3" gradientUnits="userSpaceOnUse"><stop offset="0.1" stop-color="#54ade1"/><stop offset="0.17" stop-color="#509cd6"/><stop offset="0.32" stop-color="#4a84c5"/><stop offset="0.47" stop-color="#4672b9"/><stop offset="0.63" stop-color="#4467b1"/><stop offset="0.81" stop-color="#4364af"/></linearGradient></defs><path class="cls-1" d="M604.8,655.63l-25.37,54.62a77.28,77.28,0,0,1-17.75,24.37,33.71,33.71,0,0,0-8.09,11.21l-13.59,31-13.59-31a33.63,33.63,0,0,0-8.09-11.2,77.47,77.47,0,0,1-17.76-24.37L475.2,655.63Z" transform="translate(-263.31 -299.82)"/><path class="cls-1" d="M780.65,534.11,755,545.79l-44.68,20.33-.45.21-.6.27-24.31.06-288.25.72-24,0-.57-.26-2.31-1-25.89-11.76-9.44-4.29-.13-.06-.71-.32-4-1.81-23.27-10.59v-5.54h-4.13l29.59-24.4,75.34-62.11,6.42,6.37a22.56,22.56,0,0,0,31.91-31.89L437.79,412l78.06-65.06a20.73,20.73,0,0,0,5.33-6.68L540,303.14l18.82,37.1a20.73,20.73,0,0,0,5.33,6.68L642.21,412l-7.68,7.74a22.56,22.56,0,0,0,31.91,31.89l6.42-6.37L734,495.67l2.31,1.91,16.8,13.85,2.17,1.79,5.22,4.3,7,5.73v9.38h11.38Z" transform="translate(-263.31 -299.82)"/><path class="cls-2" d="M486.22,655.63H593.78L570.37,706a67.82,67.82,0,0,1-15.48,21.24,43.82,43.82,0,0,0-10.46,14.53L540,751.93l-4.43-10.12a43.82,43.82,0,0,0-10.46-14.53A67.82,67.82,0,0,1,509.63,706Z" transform="translate(-263.31 -299.82)"/><path class="cls-3" d="M761.93,531.64,750.16,537l-65.24,29.66-288.25.72-29.22-13.28-12.57-5.72-20.45-9.29-6.29-2.86-2-.89-8.11-3.69L329.79,522l20.75-17.11,56-46.16a32.56,32.56,0,0,0,46.05-46l69.69-58.07a31.23,31.23,0,0,0,7.84-9.84l9.9-19.52,9.9,19.52a31.23,31.23,0,0,0,7.84,9.84l69.69,58.07a32.56,32.56,0,0,0,46.05,46L734,508.63l6.11,5Z" transform="translate(-263.31 -299.82)"/><line class="cls-4" x1="536.82" y1="266.3" x2="16.62" y2="266.3"/><line class="cls-4" x1="536.82" y1="355.81" x2="16.62" y2="355.81"/><path class="cls-5" d="M789.88,554.35v11.77l-57.54.15-22.51.06h-5.12l-19.19,0h0l-289.43.72-19,0h-5l-22.3.06-57,.15v-12H301v-6.59h5.38v-17h-9.56s.06-.36.19-1a99.24,99.24,0,0,1,4.1-15.17c3.16-8.75,8.28-18.29,16-20.82a7.75,7.75,0,0,1,7.54,1.37c3,2.3,5.34,6.53,7.15,11.23a79.47,79.47,0,0,1,3.14,10.38,113,113,0,0,1,2.15,11.59l-7.64.18.06,7.35.08,8.71,0,2.32v2l4-.14.72,0V550l-.16,5.37,5.73.19h4V534.9s18.42-10.26,35.27-9.23V508l2.87-.21a2.07,2.07,0,0,0,1.92-2l.68-12.65a.91.91,0,0,1,1.8-.1l2.47,14.53a2.44,2.44,0,0,0,2.33,2l5,.12v23.62h4.17v23.12h10.07V534.9S413.2,527.07,420,524V513h-5.21v-2.6H420v-7.64h2.95v-7.13H419.8v-4.34h2.26s2.08-12.34,6.42-13.21,5.91,12.86,5.91,12.86h3.3v4.17h-2.43v9.56h4.52V492l6.08-6.08,3.39,3.39L463.58,475l16,16,4.36-4.35,4.51,4.52v10.77h5.21v-8.51h-3.13v-4.17h3.83v-8l4.86-5.56c2.44-2.79,5.73,12.16,5.73,12.16h3.31v4.7h-3.13V509h7.81v5h-5.37v10.61s10.42,10.76,11.8,16.84v13.9h3.82V534h4V522.55H531V511.43h2.62v-8.86h2.6v-8.86h1.56V481.2H540v-8.52h3.13V461.91h2.43V437.42h4.17v7.12H580v-7.12h4v22.41h2.08V473.9h3.82v5.22h1.92V493h3.47v9.38h2.61v11.29h2.61v9.21h3.65v8.68H608v23.63h2.1V525.67h9v2.62H631.6v-3.83h8.86v3.65h16.33v-5h5.39V506.91l5.13-5.13,4.77,4.79v16.5h3.65v6.25h15.64v-5h9v2.09h11.8v-3h8v29.36h6.6v-30.4l5.05,5,4.42-4.43,5,4.95,5-5v6.42h4.52V511.43h4.51v10.78h5.22v-41l2.63,6.62,4.32,10.93v33.88h16.85v21.72Z" transform="translate(-263.31 -299.82)"/><text class="cls-6" transform="translate(174.12 309.46)">CHEN<tspan class="cls-7" x="120.74" y="0">N</tspan><tspan x="152.24" y="0">AI</tspan></text><text class="cls-6" transform="translate(97.63 344.4)">WEB SOLUTIONS</text><polygon class="cls-5" points="181.33 355.96 226.52 387.32 211.89 355.81 181.33 355.96"/><polygon class="cls-5" points="372.05 355.96 326.86 387.32 341.49 355.81 372.05 355.96"/></svg>